<svg width="411" height="120" viewBox="0 0 411 120" fill="none" xmlns="http://www.w3.org/2000/svg">
<path d="M62.9756 31.4838H69.1649V38.6968H63.9386C62.2939 38.6968 60.9629 40.0289 60.9629 41.6751C60.9629 43.3213 62.2939 44.6534 63.9386 44.6534H69.1649V48.0217C69.1649 49.6679 70.4959 51 72.1406 51C73.7853 51 75.1163 49.6679 75.1163 48.0217V44.6534H81.0243C82.6691 44.6534 84 43.3213 84 41.6751V28.5054C84 26.8592 82.6691 25.5271 81.0243 25.5271H75.1163V18.3141H79.5311C81.1758 18.3141 82.5068 16.9819 82.5068 15.3357C82.5068 13.6895 81.1758 12.3574 79.5311 12.3574H75.1055V8.97834C75.1055 7.33213 73.7745 6 72.1298 6C70.4852 6 69.1651 7.33213 69.1651 8.97834V12.3466H62.9757C61.3309 12.3466 60 13.6787 60 15.3249V28.4946C59.9999 30.1516 61.3307 31.4838 62.9756 31.4838ZM75.1163 31.4838H78.0487V38.6968H75.1163V31.4838ZM65.9512 18.3032H69.1649V25.5162H65.9512V18.3032Z" fill="#F9D832"/>
<path d="M113.836 15.232C113.068 15.28 112.504 15.376 112.144 15.52C111.808 15.664 111.58 15.94 111.46 16.348C111.34 16.756 111.28 17.416 111.28 18.328V36.184C111.28 37.096 111.34 37.756 111.46 38.164C111.604 38.572 111.844 38.848 112.18 38.992C112.516 39.136 113.068 39.232 113.836 39.28V40C112.54 39.928 110.524 39.892 107.788 39.892C105.028 39.892 102.904 39.928 101.416 40V39.28C102.184 39.232 102.736 39.136 103.072 38.992C103.432 38.848 103.672 38.572 103.792 38.164C103.912 37.756 103.972 37.096 103.972 36.184V27.544H95.872V36.184C95.872 37.096 95.932 37.756 96.052 38.164C96.196 38.572 96.436 38.848 96.772 38.992C97.108 39.136 97.66 39.232 98.428 39.28V40C97.036 39.928 95.032 39.892 92.416 39.892C89.512 39.892 87.376 39.928 86.008 40V39.28C86.776 39.232 87.328 39.136 87.664 38.992C88.024 38.848 88.264 38.572 88.384 38.164C88.504 37.756 88.564 37.096 88.564 36.184V18.328C88.564 17.416 88.492 16.756 88.348 16.348C88.228 15.94 88 15.664 87.664 15.52C87.328 15.376 86.776 15.28 86.008 15.232V14.512C87.376 14.584 89.512 14.62 92.416 14.62C95.008 14.62 97.012 14.584 98.428 14.512V15.232C97.66 15.28 97.096 15.376 96.736 15.52C96.4 15.664 96.172 15.94 96.052 16.348C95.932 16.756 95.872 17.416 95.872 18.328V26.824H103.972V18.328C103.972 17.416 103.9 16.756 103.756 16.348C103.636 15.94 103.408 15.664 103.072 15.52C102.736 15.376 102.184 15.28 101.416 15.232V14.512C102.904 14.584 105.028 14.62 107.788 14.62C110.524 14.62 112.54 14.584 113.836 14.512V15.232ZM129.47 14.008C132.182 14.008 134.558 14.524 136.598 15.556C138.638 16.588 140.222 18.088 141.35 20.056C142.478 22 143.042 24.328 143.042 27.04C143.042 29.68 142.466 32.02 141.314 34.06C140.162 36.1 138.554 37.684 136.49 38.812C134.426 39.94 132.074 40.504 129.434 40.504C126.722 40.504 124.346 39.988 122.306 38.956C120.266 37.924 118.682 36.436 117.554 34.492C116.426 32.524 115.862 30.184 115.862 27.472C115.862 24.832 116.438 22.492 117.59 20.452C118.742 18.412 120.35 16.828 122.414 15.7C124.478 14.572 126.83 14.008 129.47 14.008ZM129.326 14.656C128.15 14.656 127.106 15.196 126.194 16.276C125.306 17.332 124.622 18.82 124.142 20.74C123.662 22.66 123.422 24.856 123.422 27.328C123.422 29.824 123.698 32.02 124.25 33.916C124.802 35.812 125.546 37.276 126.482 38.308C127.418 39.34 128.45 39.856 129.578 39.856C130.754 39.856 131.786 39.328 132.674 38.272C133.586 37.192 134.282 35.692 134.762 33.772C135.242 31.852 135.482 29.656 135.482 27.184C135.482 24.688 135.206 22.492 134.654 20.596C134.102 18.7 133.358 17.236 132.422 16.204C131.486 15.172 130.454 14.656 129.326 14.656ZM177.341 14.62C178.469 14.62 179.393 14.584 180.113 14.512V15.232C178.697 15.928 177.581 17.608 176.765 20.272L170.717 40C169.949 39.952 169.313 39.928 168.809 39.928C168.329 39.928 167.705 39.952 166.937 40L162.257 25.708L157.181 40C156.413 39.952 155.777 39.928 155.273 39.928C154.793 39.928 154.169 39.952 153.401 40L145.049 17.536C144.761 16.768 144.425 16.204 144.041 15.844C143.657 15.46 143.285 15.256 142.925 15.232V14.512C144.653 14.584 146.777 14.62 149.297 14.62C151.481 14.62 153.077 14.584 154.085 14.512V15.232C153.437 15.352 153.113 15.832 153.113 16.672C153.113 17.176 153.221 17.704 153.437 18.256L158.657 32.944L161.825 24.376L159.377 16.924C159.185 16.324 158.945 15.904 158.657 15.664C158.369 15.424 157.997 15.28 157.541 15.232V14.512C159.149 14.584 161.225 14.62 163.769 14.62C166.265 14.62 168.125 14.584 169.349 14.512V15.232C168.485 15.256 167.861 15.364 167.477 15.556C167.093 15.748 166.901 16.096 166.901 16.6C166.901 17.056 167.021 17.608 167.261 18.256L172.013 32.692L174.785 23.8C175.433 21.664 175.757 19.984 175.757 18.76C175.757 17.56 175.481 16.684 174.929 16.132C174.401 15.58 173.633 15.28 172.625 15.232V14.512C174.425 14.584 175.997 14.62 177.341 14.62ZM200.828 14.512C205.796 14.512 209.516 15.58 211.988 17.716C214.46 19.828 215.696 22.912 215.696 26.968C215.696 29.584 215.084 31.876 213.86 33.844C212.66 35.788 210.92 37.3 208.64 38.38C206.36 39.46 203.648 40 200.504 40L198.272 39.964C196.832 39.916 195.776 39.892 195.104 39.892C192.296 39.892 190.208 39.928 188.84 40V39.28C189.608 39.232 190.16 39.136 190.496 38.992C190.856 38.848 191.096 38.572 191.216 38.164C191.336 37.756 191.396 37.096 191.396 36.184V18.328C191.396 17.416 191.324 16.756 191.18 16.348C191.06 15.94 190.832 15.664 190.496 15.52C190.16 15.376 189.608 15.28 188.84 15.232V14.512C189.944 14.584 191.576 14.62 193.736 14.62H195.032L196.616 14.584C198.632 14.536 200.036 14.512 200.828 14.512ZM201.368 15.16C200.624 15.16 200.06 15.244 199.676 15.412C199.316 15.58 199.064 15.88 198.92 16.312C198.776 16.744 198.704 17.392 198.704 18.256V36.256C198.704 37.12 198.776 37.768 198.92 38.2C199.064 38.632 199.316 38.932 199.676 39.1C200.06 39.268 200.636 39.352 201.404 39.352C203.78 39.352 205.496 38.332 206.552 36.292C207.608 34.228 208.136 31.168 208.136 27.112C208.136 23.056 207.584 20.056 206.48 18.112C205.4 16.144 203.696 15.16 201.368 15.16ZM231.916 14.008C234.628 14.008 237.004 14.524 239.044 15.556C241.084 16.588 242.668 18.088 243.796 20.056C244.924 22 245.488 24.328 245.488 27.04C245.488 29.68 244.912 32.02 243.76 34.06C242.608 36.1 241 37.684 238.936 38.812C236.872 39.94 234.52 40.504 231.88 40.504C229.168 40.504 226.792 39.988 224.752 38.956C222.712 37.924 221.128 36.436 220 34.492C218.872 32.524 218.308 30.184 218.308 27.472C218.308 24.832 218.884 22.492 220.036 20.452C221.188 18.412 222.796 16.828 224.86 15.7C226.924 14.572 229.276 14.008 231.916 14.008ZM231.772 14.656C230.596 14.656 229.552 15.196 228.64 16.276C227.752 17.332 227.068 18.82 226.588 20.74C226.108 22.66 225.868 24.856 225.868 27.328C225.868 29.824 226.144 32.02 226.696 33.916C227.248 35.812 227.992 37.276 228.928 38.308C229.864 39.34 230.896 39.856 232.024 39.856C233.2 39.856 234.232 39.328 235.12 38.272C236.032 37.192 236.728 35.692 237.208 33.772C237.688 31.852 237.928 29.656 237.928 27.184C237.928 24.688 237.652 22.492 237.1 20.596C236.548 18.7 235.804 17.236 234.868 16.204C233.932 15.172 232.9 14.656 231.772 14.656ZM288.537 15.232C287.769 15.28 287.205 15.376 286.845 15.52C286.509 15.664 286.281 15.94 286.161 16.348C286.041 16.756 285.981 17.416 285.981 18.328V36.184C285.981 37.096 286.041 37.756 286.161 38.164C286.305 38.572 286.545 38.848 286.881 38.992C287.217 39.136 287.769 39.232 288.537 39.28V40C287.073 39.928 284.949 39.892 282.165 39.892C279.261 39.892 277.125 39.928 275.757 40V39.28C276.621 39.232 277.245 39.136 277.629 38.992C278.037 38.848 278.313 38.572 278.457 38.164C278.601 37.756 278.673 37.096 278.673 36.184V17.788L269.997 39.964H269.421L259.269 16.852V32.944C259.269 34.72 259.341 36.004 259.485 36.796C259.629 37.564 259.941 38.128 260.421 38.488C260.925 38.848 261.753 39.112 262.905 39.28V40C261.921 39.928 260.577 39.892 258.873 39.892C257.601 39.892 256.605 39.928 255.885 40V39.28C256.629 39.112 257.181 38.86 257.541 38.524C257.901 38.164 258.141 37.624 258.261 36.904C258.381 36.184 258.441 35.104 258.441 33.664V18.328C258.441 17.416 258.369 16.756 258.225 16.348C258.105 15.94 257.877 15.664 257.541 15.52C257.205 15.376 256.653 15.28 255.885 15.232V14.512C256.605 14.584 257.601 14.62 258.873 14.62C261.753 14.62 264.237 14.584 266.325 14.512L273.129 29.812L279.033 14.62H282.165C284.949 14.62 287.073 14.584 288.537 14.512V15.232ZM302.967 15.232C302.199 15.28 301.635 15.376 301.275 15.52C300.939 15.664 300.711 15.94 300.591 16.348C300.471 16.756 300.411 17.416 300.411 18.328V36.184C300.411 37.096 300.471 37.756 300.591 38.164C300.735 38.572 300.975 38.848 301.311 38.992C301.647 39.136 302.199 39.232 302.967 39.28V40C301.575 39.928 299.571 39.892 296.955 39.892C294.051 39.892 291.915 39.928 290.547 40V39.28C291.315 39.232 291.867 39.136 292.203 38.992C292.563 38.848 292.803 38.572 292.923 38.164C293.043 37.756 293.103 37.096 293.103 36.184V18.328C293.103 17.416 293.031 16.756 292.887 16.348C292.767 15.94 292.539 15.664 292.203 15.52C291.867 15.376 291.315 15.28 290.547 15.232V14.512C291.915 14.584 294.051 14.62 296.955 14.62C299.547 14.62 301.551 14.584 302.967 14.512V15.232ZM317.776 15.232C316.912 15.28 316.276 15.376 315.868 15.52C315.484 15.664 315.22 15.94 315.076 16.348C314.932 16.756 314.86 17.416 314.86 18.328V36.904C314.86 37.576 314.908 38.068 315.004 38.38C315.1 38.692 315.268 38.908 315.508 39.028C315.748 39.124 316.144 39.172 316.696 39.172H317.884C318.724 39.172 319.636 38.752 320.62 37.912C321.604 37.072 322.492 35.968 323.284 34.6C324.076 33.208 324.604 31.768 324.868 30.28H325.696C325.624 31.144 325.588 32.248 325.588 33.592C325.588 36.184 325.672 38.32 325.84 40C324.208 39.928 321.46 39.892 317.596 39.892C311.98 39.892 307.78 39.928 304.996 40V39.28C305.764 39.232 306.316 39.136 306.652 38.992C307.012 38.848 307.252 38.572 307.372 38.164C307.492 37.756 307.552 37.096 307.552 36.184V18.328C307.552 17.416 307.48 16.756 307.336 16.348C307.216 15.94 306.988 15.664 306.652 15.52C306.316 15.376 305.764 15.28 304.996 15.232V14.512C306.364 14.584 308.5 14.62 311.404 14.62C314.164 14.62 316.288 14.584 317.776 14.512V15.232ZM355.359 15.232C354.591 15.28 354.027 15.376 353.667 15.52C353.331 15.664 353.103 15.94 352.983 16.348C352.863 16.756 352.803 17.416 352.803 18.328V36.184C352.803 37.096 352.863 37.756 352.983 38.164C353.127 38.572 353.367 38.848 353.703 38.992C354.039 39.136 354.591 39.232 355.359 39.28V40C354.063 39.928 352.047 39.892 349.311 39.892C346.551 39.892 344.427 39.928 342.939 40V39.28C343.707 39.232 344.259 39.136 344.595 38.992C344.955 38.848 345.195 38.572 345.315 38.164C345.435 37.756 345.495 37.096 345.495 36.184V27.544H337.395V36.184C337.395 37.096 337.455 37.756 337.575 38.164C337.719 38.572 337.959 38.848 338.295 38.992C338.631 39.136 339.183 39.232 339.951 39.28V40C338.559 39.928 336.555 39.892 333.939 39.892C331.035 39.892 328.899 39.928 327.531 40V39.28C328.299 39.232 328.851 39.136 329.187 38.992C329.547 38.848 329.787 38.572 329.907 38.164C330.027 37.756 330.087 37.096 330.087 36.184V18.328C330.087 17.416 330.015 16.756 329.871 16.348C329.751 15.94 329.523 15.664 329.187 15.52C328.851 15.376 328.299 15.28 327.531 15.232V14.512C328.899 14.584 331.035 14.62 333.939 14.62C336.531 14.62 338.535 14.584 339.951 14.512V15.232C339.183 15.28 338.619 15.376 338.259 15.52C337.923 15.664 337.695 15.94 337.575 16.348C337.455 16.756 337.395 17.416 337.395 18.328V26.824H345.495V18.328C345.495 17.416 345.423 16.756 345.279 16.348C345.159 15.94 344.931 15.664 344.595 15.52C344.259 15.376 343.707 15.28 342.939 15.232V14.512C344.427 14.584 346.551 14.62 349.311 14.62C352.047 14.62 354.063 14.584 355.359 14.512V15.232ZM379.411 36.976C379.723 37.744 380.059 38.32 380.419 38.704C380.803 39.064 381.175 39.256 381.535 39.28V40C379.807 39.928 377.623 39.892 374.983 39.892C372.247 39.892 370.231 39.928 368.935 40V39.28C369.847 39.232 370.495 39.124 370.879 38.956C371.263 38.764 371.455 38.44 371.455 37.984C371.455 37.552 371.311 36.976 371.023 36.256L368.899 30.352H361.627L361.015 31.972C360.223 34.012 359.827 35.572 359.827 36.652C359.827 37.636 360.103 38.308 360.655 38.668C361.207 39.028 362.023 39.232 363.103 39.28V40C361.303 39.928 359.731 39.892 358.387 39.892C357.259 39.892 356.335 39.928 355.615 40V39.28C356.215 39.184 356.779 38.812 357.307 38.164C357.835 37.516 358.375 36.484 358.927 35.068L366.919 14.512C367.687 14.56 368.323 14.584 368.827 14.584C369.307 14.584 369.931 14.56 370.699 14.512L379.411 36.976ZM368.647 29.632L365.371 20.632L361.915 29.632H368.647ZM365.443 6.232C366.355 6.232 367.135 6.352 367.783 6.592C368.431 6.808 369.127 7.12 369.871 7.528C370.639 7.912 371.251 8.188 371.707 8.356C372.187 8.524 372.751 8.608 373.399 8.608C374.767 8.608 375.931 7.972 376.891 6.7L377.395 6.952C376.939 8.824 376.231 10.216 375.271 11.128C374.335 12.016 373.267 12.46 372.067 12.46C371.155 12.46 370.387 12.352 369.763 12.136C369.139 11.92 368.407 11.596 367.567 11.164C366.871 10.78 366.271 10.504 365.767 10.336C365.287 10.144 364.723 10.048 364.075 10.048C362.731 10.048 361.567 10.696 360.583 11.992L360.079 11.74C360.535 9.868 361.243 8.488 362.203 7.6C363.163 6.688 364.243 6.232 365.443 6.232ZM395.849 14.008C398.561 14.008 400.937 14.524 402.977 15.556C405.017 16.588 406.601 18.088 407.729 20.056C408.857 22 409.421 24.328 409.421 27.04C409.421 29.68 408.845 32.02 407.693 34.06C406.541 36.1 404.933 37.684 402.869 38.812C400.805 39.94 398.453 40.504 395.813 40.504C393.101 40.504 390.725 39.988 388.685 38.956C386.645 37.924 385.061 36.436 383.933 34.492C382.805 32.524 382.241 30.184 382.241 27.472C382.241 24.832 382.817 22.492 383.969 20.452C385.121 18.412 386.729 16.828 388.793 15.7C390.857 14.572 393.209 14.008 395.849 14.008ZM395.705 14.656C394.529 14.656 393.485 15.196 392.573 16.276C391.685 17.332 391.001 18.82 390.521 20.74C390.041 22.66 389.801 24.856 389.801 27.328C389.801 29.824 390.077 32.02 390.629 33.916C391.181 35.812 391.925 37.276 392.861 38.308C393.797 39.34 394.829 39.856 395.957 39.856C397.133 39.856 398.165 39.328 399.053 38.272C399.965 37.192 400.661 35.692 401.141 33.772C401.621 31.852 401.861 29.656 401.861 27.184C401.861 24.688 401.585 22.492 401.033 20.596C400.481 18.7 399.737 17.236 398.801 16.204C397.865 15.172 396.833 14.656 395.705 14.656ZM106.132 64.512C105.964 66.768 105.88 68.784 105.88 70.56C105.88 71.664 105.916 72.528 105.988 73.152H105.16C104.584 70.368 103.696 68.376 102.496 67.176C101.32 65.952 100 65.34 98.536 65.34H98.068C97.42 65.34 96.94 65.4 96.628 65.52C96.34 65.616 96.136 65.82 96.016 66.132C95.92 66.42 95.872 66.912 95.872 67.608V76.824H96.232C97.48 76.824 98.548 76.332 99.436 75.348C100.324 74.364 100.888 73.272 101.128 72.072H101.956C101.884 73.08 101.848 74.208 101.848 75.456V77.184C101.848 78.408 101.92 80.112 102.064 82.296H101.236C101.02 80.928 100.456 79.8 99.544 78.912C98.656 78 97.552 77.544 96.232 77.544H95.872V85.824C95.872 86.832 95.968 87.564 96.16 88.02C96.376 88.476 96.748 88.788 97.276 88.956C97.828 89.1 98.692 89.172 99.868 89.172V90C96.628 89.928 94.156 89.892 92.452 89.892C91.324 89.892 89.752 89.916 87.736 89.964L86.008 90V89.28C86.776 89.232 87.328 89.136 87.664 88.992C88.024 88.848 88.264 88.572 88.384 88.164C88.504 87.756 88.564 87.096 88.564 86.184V68.328C88.564 67.416 88.492 66.756 88.348 66.348C88.228 65.94 88 65.664 87.664 65.52C87.328 65.376 86.776 65.28 86.008 65.232V64.512C88.792 64.584 92.992 64.62 98.608 64.62C102.136 64.62 104.644 64.584 106.132 64.512ZM127.798 86.976C128.11 87.744 128.446 88.32 128.806 88.704C129.19 89.064 129.562 89.256 129.922 89.28V90C128.194 89.928 126.01 89.892 123.37 89.892C120.634 89.892 118.618 89.928 117.322 90V89.28C118.234 89.232 118.882 89.124 119.266 88.956C119.65 88.764 119.842 88.44 119.842 87.984C119.842 87.552 119.698 86.976 119.41 86.256L117.286 80.352H110.014L109.402 81.972C108.61 84.012 108.214 85.572 108.214 86.652C108.214 87.636 108.49 88.308 109.042 88.668C109.594 89.028 110.41 89.232 111.49 89.28V90C109.69 89.928 108.118 89.892 106.774 89.892C105.646 89.892 104.722 89.928 104.002 90V89.28C104.602 89.184 105.166 88.812 105.694 88.164C106.222 87.516 106.762 86.484 107.314 85.068L115.306 64.512C116.074 64.56 116.71 64.584 117.214 64.584C117.694 64.584 118.318 64.56 119.086 64.512L127.798 86.976ZM117.034 79.632L113.758 70.632L110.302 79.632H117.034ZM162.712 65.232C161.944 65.28 161.38 65.376 161.02 65.52C160.684 65.664 160.456 65.94 160.336 66.348C160.216 66.756 160.156 67.416 160.156 68.328V86.184C160.156 87.096 160.216 87.756 160.336 88.164C160.48 88.572 160.72 88.848 161.056 88.992C161.392 89.136 161.944 89.232 162.712 89.28V90C161.248 89.928 159.124 89.892 156.34 89.892C153.436 89.892 151.3 89.928 149.932 90V89.28C150.796 89.232 151.42 89.136 151.804 88.992C152.212 88.848 152.488 88.572 152.632 88.164C152.776 87.756 152.848 87.096 152.848 86.184V67.788L144.172 89.964H143.596L133.444 66.852V82.944C133.444 84.72 133.516 86.004 133.66 86.796C133.804 87.564 134.116 88.128 134.596 88.488C135.1 88.848 135.928 89.112 137.08 89.28V90C136.096 89.928 134.752 89.892 133.048 89.892C131.776 89.892 130.78 89.928 130.06 90V89.28C130.804 89.112 131.356 88.86 131.716 88.524C132.076 88.164 132.316 87.624 132.436 86.904C132.556 86.184 132.616 85.104 132.616 83.664V68.328C132.616 67.416 132.544 66.756 132.4 66.348C132.28 65.94 132.052 65.664 131.716 65.52C131.38 65.376 130.828 65.28 130.06 65.232V64.512C130.78 64.584 131.776 64.62 133.048 64.62C135.928 64.62 138.412 64.584 140.5 64.512L147.304 79.812L153.208 64.62H156.34C159.124 64.62 161.248 64.584 162.712 64.512V65.232ZM177.143 65.232C176.375 65.28 175.811 65.376 175.451 65.52C175.115 65.664 174.887 65.94 174.767 66.348C174.647 66.756 174.587 67.416 174.587 68.328V86.184C174.587 87.096 174.647 87.756 174.767 88.164C174.911 88.572 175.151 88.848 175.487 88.992C175.823 89.136 176.375 89.232 177.143 89.28V90C175.751 89.928 173.747 89.892 171.131 89.892C168.227 89.892 166.091 89.928 164.723 90V89.28C165.491 89.232 166.043 89.136 166.379 88.992C166.739 88.848 166.979 88.572 167.099 88.164C167.219 87.756 167.279 87.096 167.279 86.184V68.328C167.279 67.416 167.207 66.756 167.063 66.348C166.943 65.94 166.715 65.664 166.379 65.52C166.043 65.376 165.491 65.28 164.723 65.232V64.512C166.091 64.584 168.227 64.62 171.131 64.62C173.723 64.62 175.727 64.584 177.143 64.512V65.232ZM173.903 56.196C174.287 56.028 174.659 55.944 175.019 55.944C175.475 55.944 175.907 56.064 176.315 56.304C176.747 56.544 177.071 56.88 177.287 57.312C177.431 57.6 177.503 57.912 177.503 58.248C177.503 58.68 177.383 59.088 177.143 59.472C176.903 59.856 176.567 60.156 176.135 60.372C175.751 60.564 175.355 60.708 174.947 60.804C174.539 60.9 173.987 61.008 173.291 61.128C171.587 61.392 169.979 61.752 168.467 62.208L168.215 61.776C169.463 60.72 170.615 59.532 171.671 58.212C172.175 57.636 172.571 57.204 172.859 56.916C173.147 56.628 173.495 56.388 173.903 56.196ZM191.952 65.232C191.088 65.28 190.452 65.376 190.044 65.52C189.66 65.664 189.396 65.94 189.252 66.348C189.108 66.756 189.036 67.416 189.036 68.328V86.904C189.036 87.576 189.084 88.068 189.18 88.38C189.276 88.692 189.444 88.908 189.684 89.028C189.924 89.124 190.32 89.172 190.872 89.172H192.06C192.9 89.172 193.812 88.752 194.796 87.912C195.78 87.072 196.668 85.968 197.46 84.6C198.252 83.208 198.78 81.768 199.044 80.28H199.872C199.8 81.144 199.764 82.248 199.764 83.592C199.764 86.184 199.848 88.32 200.016 90C198.384 89.928 195.636 89.892 191.772 89.892C186.156 89.892 181.956 89.928 179.172 90V89.28C179.94 89.232 180.492 89.136 180.828 88.992C181.188 88.848 181.428 88.572 181.548 88.164C181.668 87.756 181.728 87.096 181.728 86.184V68.328C181.728 67.416 181.656 66.756 181.512 66.348C181.392 65.94 181.164 65.664 180.828 65.52C180.492 65.376 179.94 65.28 179.172 65.232V64.512C180.54 64.584 182.676 64.62 185.58 64.62C188.34 64.62 190.464 64.584 191.952 64.512V65.232ZM214.127 65.232C213.359 65.28 212.795 65.376 212.435 65.52C212.099 65.664 211.871 65.94 211.751 66.348C211.631 66.756 211.571 67.416 211.571 68.328V86.184C211.571 87.096 211.631 87.756 211.751 88.164C211.895 88.572 212.135 88.848 212.471 88.992C212.807 89.136 213.359 89.232 214.127 89.28V90C212.735 89.928 210.731 89.892 208.115 89.892C205.211 89.892 203.075 89.928 201.707 90V89.28C202.475 89.232 203.027 89.136 203.363 88.992C203.723 88.848 203.963 88.572 204.083 88.164C204.203 87.756 204.263 87.096 204.263 86.184V68.328C204.263 67.416 204.191 66.756 204.047 66.348C203.927 65.94 203.699 65.664 203.363 65.52C203.027 65.376 202.475 65.28 201.707 65.232V64.512C203.075 64.584 205.211 64.62 208.115 64.62C210.707 64.62 212.711 64.584 214.127 64.512V65.232ZM238.188 86.976C238.5 87.744 238.836 88.32 239.196 88.704C239.58 89.064 239.952 89.256 240.312 89.28V90C238.584 89.928 236.4 89.892 233.76 89.892C231.024 89.892 229.008 89.928 227.712 90V89.28C228.624 89.232 229.272 89.124 229.656 88.956C230.04 88.764 230.232 88.44 230.232 87.984C230.232 87.552 230.088 86.976 229.8 86.256L227.676 80.352H220.404L219.792 81.972C219 84.012 218.604 85.572 218.604 86.652C218.604 87.636 218.88 88.308 219.432 88.668C219.984 89.028 220.8 89.232 221.88 89.28V90C220.08 89.928 218.508 89.892 217.164 89.892C216.036 89.892 215.112 89.928 214.392 90V89.28C214.992 89.184 215.556 88.812 216.084 88.164C216.612 87.516 217.152 86.484 217.704 85.068L225.696 64.512C226.464 64.56 227.1 64.584 227.604 64.584C228.084 64.584 228.708 64.56 229.476 64.512L238.188 86.976ZM227.424 79.632L224.148 70.632L220.692 79.632H227.424ZM269.618 86.976C269.93 87.744 270.266 88.32 270.626 88.704C271.01 89.064 271.382 89.256 271.742 89.28V90C270.014 89.928 267.83 89.892 265.19 89.892C262.454 89.892 260.438 89.928 259.142 90V89.28C260.054 89.232 260.702 89.124 261.086 88.956C261.47 88.764 261.662 88.44 261.662 87.984C261.662 87.552 261.518 86.976 261.23 86.256L259.106 80.352H251.834L251.222 81.972C250.43 84.012 250.034 85.572 250.034 86.652C250.034 87.636 250.31 88.308 250.862 88.668C251.414 89.028 252.23 89.232 253.31 89.28V90C251.51 89.928 249.938 89.892 248.594 89.892C247.466 89.892 246.542 89.928 245.822 90V89.28C246.422 89.184 246.986 88.812 247.514 88.164C248.042 87.516 248.582 86.484 249.134 85.068L257.126 64.512C257.894 64.56 258.53 64.584 259.034 64.584C259.514 64.584 260.138 64.56 260.906 64.512L269.618 86.976ZM258.854 79.632L255.578 70.632L252.122 79.632H258.854ZM286.416 64.008C287.952 64.008 289.272 64.212 290.376 64.62C291.48 65.028 292.488 65.604 293.4 66.348C293.664 66.564 293.904 66.672 294.12 66.672C294.36 66.672 294.552 66.504 294.696 66.168C294.84 65.808 294.948 65.256 295.02 64.512H295.848C295.752 66.216 295.704 69.216 295.704 73.512H294.876C294.708 71.616 294.396 70.116 293.94 69.012C293.484 67.908 292.692 66.972 291.564 66.204C291.06 65.868 290.472 65.604 289.8 65.412C289.152 65.22 288.504 65.124 287.856 65.124C286.128 65.124 284.724 65.736 283.644 66.96C282.588 68.16 281.832 69.684 281.376 71.532C280.944 73.38 280.728 75.312 280.728 77.328C280.728 81.504 281.232 84.624 282.24 86.688C283.272 88.752 284.7 89.784 286.524 89.784C287.268 89.784 287.856 89.64 288.288 89.352C288.792 88.992 289.044 88.392 289.044 87.552V83.952C289.044 82.752 288.948 81.876 288.756 81.324C288.564 80.748 288.216 80.364 287.712 80.172C287.232 79.956 286.464 79.824 285.408 79.776V79.056C287.04 79.128 289.332 79.164 292.284 79.164C294.756 79.164 296.604 79.128 297.828 79.056V79.776C297.396 79.824 297.072 79.92 296.856 80.064C296.664 80.208 296.532 80.484 296.46 80.892C296.388 81.3 296.352 81.96 296.352 82.872V90H295.632C295.608 89.496 295.5 89.028 295.308 88.596C295.116 88.164 294.852 87.948 294.516 87.948C294.012 87.948 293.196 88.224 292.068 88.776C289.668 89.928 287.64 90.504 285.984 90.504C281.52 90.504 278.148 89.376 275.868 87.12C273.588 84.864 272.448 81.648 272.448 77.472C272.448 74.832 273.036 72.492 274.212 70.452C275.412 68.412 277.068 66.828 279.18 65.7C281.292 64.572 283.704 64.008 286.416 64.008ZM322.879 65.232C322.135 65.4 321.583 65.664 321.223 66.024C320.863 66.36 320.623 66.888 320.503 67.608C320.383 68.328 320.323 69.408 320.323 70.848V79.524C320.323 82.98 319.831 85.524 318.847 87.156C318.199 88.236 317.239 89.064 315.967 89.64C314.719 90.216 313.099 90.504 311.107 90.504C308.203 90.504 305.947 89.928 304.339 88.776C303.163 87.936 302.371 86.808 301.963 85.392C301.579 83.976 301.387 82.056 301.387 79.632V68.328C301.387 67.416 301.327 66.756 301.207 66.348C301.087 65.94 300.847 65.664 300.487 65.52C300.151 65.376 299.599 65.28 298.831 65.232V64.512C300.199 64.584 302.311 64.62 305.167 64.62C307.999 64.62 310.147 64.584 311.611 64.512V65.232C310.747 65.28 310.111 65.376 309.703 65.52C309.319 65.664 309.055 65.94 308.911 66.348C308.767 66.756 308.695 67.416 308.695 68.328V83.016C308.695 85.32 309.055 86.94 309.775 87.876C310.495 88.788 311.635 89.244 313.195 89.244C315.475 89.244 317.095 88.44 318.055 86.832C319.015 85.2 319.495 82.896 319.495 79.92V71.568C319.495 69.792 319.423 68.52 319.279 67.752C319.135 66.96 318.811 66.384 318.307 66.024C317.827 65.664 317.011 65.4 315.859 65.232V64.512C316.843 64.584 318.187 64.62 319.891 64.62C321.163 64.62 322.159 64.584 322.879 64.512V65.232ZM336.752 65.232C335.984 65.28 335.42 65.376 335.06 65.52C334.724 65.664 334.496 65.94 334.376 66.348C334.256 66.756 334.196 67.416 334.196 68.328V86.184C334.196 87.096 334.256 87.756 334.376 88.164C334.52 88.572 334.76 88.848 335.096 88.992C335.432 89.136 335.984 89.232 336.752 89.28V90C335.36 89.928 333.356 89.892 330.74 89.892C327.836 89.892 325.7 89.928 324.332 90V89.28C325.1 89.232 325.652 89.136 325.988 88.992C326.348 88.848 326.588 88.572 326.708 88.164C326.828 87.756 326.888 87.096 326.888 86.184V68.328C326.888 67.416 326.816 66.756 326.672 66.348C326.552 65.94 326.324 65.664 325.988 65.52C325.652 65.376 325.1 65.28 324.332 65.232V64.512C325.7 64.584 327.836 64.62 330.74 64.62C333.332 64.62 335.336 64.584 336.752 64.512V65.232ZM360.813 86.976C361.125 87.744 361.461 88.32 361.821 88.704C362.205 89.064 362.577 89.256 362.937 89.28V90C361.209 89.928 359.025 89.892 356.385 89.892C353.649 89.892 351.633 89.928 350.337 90V89.28C351.249 89.232 351.897 89.124 352.281 88.956C352.665 88.764 352.857 88.44 352.857 87.984C352.857 87.552 352.713 86.976 352.425 86.256L350.301 80.352H343.029L342.417 81.972C341.625 84.012 341.229 85.572 341.229 86.652C341.229 87.636 341.505 88.308 342.057 88.668C342.609 89.028 343.425 89.232 344.505 89.28V90C342.705 89.928 341.133 89.892 339.789 89.892C338.661 89.892 337.737 89.928 337.017 90V89.28C337.617 89.184 338.181 88.812 338.709 88.164C339.237 87.516 339.777 86.484 340.329 85.068L348.321 64.512C349.089 64.56 349.725 64.584 350.229 64.584C350.709 64.584 351.333 64.56 352.101 64.512L360.813 86.976ZM350.049 79.632L346.773 70.632L343.317 79.632H350.049ZM388.852 88.56C388.132 89.28 387.34 89.784 386.476 90.072C385.612 90.36 384.604 90.504 383.452 90.504C381.796 90.504 380.512 90.216 379.6 89.64C378.688 89.04 378.124 88.032 377.908 86.616L377.368 83.016C377.128 81.336 376.792 80.064 376.36 79.2C375.952 78.336 375.328 77.904 374.488 77.904H372.868V86.184C372.868 87.096 372.928 87.756 373.048 88.164C373.192 88.572 373.432 88.848 373.768 88.992C374.104 89.136 374.656 89.232 375.424 89.28V90C374.032 89.928 372.028 89.892 369.412 89.892C366.508 89.892 364.372 89.928 363.004 90V89.28C363.772 89.232 364.324 89.136 364.66 88.992C365.02 88.848 365.26 88.572 365.38 88.164C365.5 87.756 365.56 87.096 365.56 86.184V68.328C365.56 67.416 365.488 66.756 365.344 66.348C365.224 65.94 364.996 65.664 364.66 65.52C364.324 65.376 363.772 65.28 363.004 65.232V64.512C364.372 64.584 366.436 64.62 369.196 64.62L373.336 64.584C373.816 64.56 374.368 64.548 374.992 64.548C378.64 64.548 381.352 65.064 383.128 66.096C384.928 67.128 385.828 68.7 385.828 70.812C385.828 72.612 385.156 74.148 383.812 75.42C382.468 76.692 380.212 77.472 377.044 77.76C379.492 77.928 381.34 78.396 382.588 79.164C383.836 79.908 384.604 81.012 384.892 82.476L385.648 86.22C385.816 87.108 386.02 87.72 386.26 88.056C386.5 88.392 386.836 88.56 387.268 88.56C387.7 88.56 388.072 88.404 388.384 88.092L388.852 88.56ZM374.812 65.232C374.26 65.232 373.84 65.316 373.552 65.484C373.288 65.652 373.108 65.952 373.012 66.384C372.916 66.816 372.868 67.464 372.868 68.328V77.184H373.84C375.544 77.184 376.708 76.668 377.332 75.636C377.956 74.58 378.268 73.104 378.268 71.208C378.268 69.24 377.992 67.752 377.44 66.744C376.912 65.736 376.036 65.232 374.812 65.232Z" fill="white"/>
<path d="M18.8824 84.9412H25.202V116.441C25.202 118.405 26.5314 120 28.1676 120H45.4393C47.0754 120 48.4048 118.405 48.4048 116.441V52.3857L56.1561 62.9758C57.1276 64.301 58.5285 65.0619 60.0012 65.0619L75.197 65.0495C76.8332 65.0495 78.1626 63.4542 78.1626 61.4908V56.0425C78.1626 54.0791 76.8332 52.4839 75.197 52.4839H64.7767C63.294 52.4839 61.8931 51.7108 60.9216 50.3732L51.3399 37.1572C50.0923 35.4392 48.2925 34.4575 46.3905 34.4575H44.5294L38.7825 45.5629L36.7781 41.2926L40.3164 34.4452H31.6754L35.2136 41.2926L33.2093 45.5507L27.4623 34.4452H18.8929C17.2567 34.4452 15.9274 36.0405 15.9274 38.0039V81.3703C15.9168 83.3459 17.2462 84.9412 18.8824 84.9412Z" fill="#000"/>
<path d="M35.919 29.0213C41.6967 29.0704 46.3698 23.3643 46.3698 16.4188V7.19088C46.3698 5.49746 45.2246 4.12309 43.8133 4.12309H36.1131C30.3354 4.12309 25.5701 9.73102 25.611 16.6642C25.6623 23.4625 30.2435 28.9723 35.919 29.0213Z" fill="#000"/>
</svg>
